# xmcd
#
# Track frame offsets:
#	150
#	27614
#	52767
#	66403
#	87911
#	109424
#	126667
#	148191
#	172322
#	197352
#	217011
#	232416
#
# Disc length: 3117 seconds
#
# Revision: 2
# Processed by: cddbd v1.5.2PL0 Copyright (c) Steve Scherf et al.
# Submitted via: audiograbber 1.83.01
#
DISCID=c60c2b0c
DTITLE=Vanille and the Woodpeckers - Seelenzauber
DYEAR=2000
DGENRE=Indian Rock
TTITLE0=Indian Woman
TTITLE1=Der Schakal
TTITLE2=Dance to the Storm
TTITLE3=Einsam ist
TTITLE4=She is mine
TTITLE5=Send me your pillow
TTITLE6=Do you want my (blow) job
TTITLE7=Wie im Sturm
TTITLE8=Seelenzauber
TTITLE9=I'm leaving
TTITLE10=Woodpecker's last flight
TTITLE11=Bonus
EXTD=spechte@gmx.de
EXTT0=
EXTT1=
EXTT2=
EXTT3=
EXTT4=
EXTT5=
EXTT6=
EXTT7=
EXTT8=
EXTT9=
EXTT10=
EXTT11=
PLAYORDER=
